<svg width="174" height="71" viewBox="0 0 174 71" fill="none" xmlns="http://www.w3.org/2000/svg">
<path d="M82.5859 56V49.8564H89.2041V56H82.5859Z" fill="#AA00FF"/>
<path d="M93.7448 56V52.1828L96.5937 51.4939V33.432L93.7448 32.7244V28.8886H96.5937H106.444C108.889 28.8886 111.056 29.4597 112.943 30.6017C114.829 31.7313 116.307 33.3017 117.374 35.3127C118.442 37.3113 118.976 39.6202 118.976 42.2395V42.6678C118.976 45.287 118.442 47.6022 117.374 49.6132C116.307 51.6118 114.829 53.1759 112.943 54.3055C111.056 55.4352 108.889 56 106.444 56H93.7448ZM103.13 51.047H106.109C107.487 51.047 108.641 50.6994 109.572 50.0042C110.503 49.3091 111.205 48.3346 111.676 47.0808C112.16 45.8146 112.403 44.3436 112.403 42.6678V42.2209C112.403 40.545 112.16 39.0802 111.676 37.8264C111.205 36.5727 110.503 35.5982 109.572 34.903C108.641 34.2079 107.487 33.8603 106.109 33.8603H103.13V51.047ZM121.117 56V52.1828L123.929 51.587V33.3203L121.117 32.7244V28.8886H142.772V36.7092H137.838L137.689 33.9161H130.464V39.4837H139.123V44.4926H130.464V50.9539H138.043L138.192 48.0304H143.07V56H121.117ZM156.105 56L147.614 33.0224L145.044 32.7244V28.8886H157.203V32.7244L154.783 33.0968L159.643 48.3284L159.903 49.3897H160.015L160.257 48.3842L164.968 33.0968L162.063 32.7244V28.8886H173.422V32.7244L170.778 33.0224L163.18 56H156.105Z" fill="white"/>
<path d="M0.744818 56V52.1828L3.55651 51.587V33.3203L0.744818 32.7244V28.87H14.0771C16.2246 28.87 18.0867 29.2114 19.6632 29.8941C21.2397 30.5769 22.4563 31.5513 23.3128 32.8175C24.1693 34.0713 24.5976 35.561 24.5976 37.2864C24.5976 38.8754 24.1631 40.3526 23.2942 41.7181C22.4376 43.0836 21.2583 44.1822 19.7563 45.0139C18.2542 45.8332 16.5412 46.2367 14.6171 46.2243L10.0923 46.1684V51.587L12.904 52.1828V56H0.744818ZM17.9129 56L14.2633 45.4236L19.9425 43.4871L23.2383 51.5497L25.8079 52.2014V56H17.9129ZM10.0923 41.1595H14.1515C15.4177 41.1595 16.3922 40.8678 17.075 40.2843C17.7577 39.6885 18.0991 38.8319 18.0991 37.7147C18.0991 36.5603 17.7515 35.6354 17.0563 34.9403C16.3612 34.2327 15.3681 33.8789 14.0771 33.8789H10.0923V41.1595ZM40.4995 56.391C38.625 56.391 36.8995 56.0497 35.323 55.3669C33.7589 54.6717 32.3996 53.7035 31.2451 52.4621C30.0906 51.2208 29.1969 49.7684 28.5638 48.1049C27.9431 46.4291 27.6327 44.6105 27.6327 42.6491V42.2209C27.6327 40.2719 27.9431 38.4657 28.5638 36.8023C29.1969 35.1389 30.0844 33.6865 31.2265 32.4451C32.381 31.2038 33.7403 30.2355 35.3044 29.5403C36.8685 28.8452 38.5878 28.4976 40.4622 28.4976C42.2995 28.4976 44.0063 28.8452 45.5829 29.5403C47.1594 30.2355 48.5373 31.2038 49.7166 32.4451C50.9083 33.6865 51.8331 35.1389 52.491 36.8023C53.149 38.4657 53.4779 40.2719 53.4779 42.2209V42.6491C53.4779 44.6105 53.149 46.4291 52.491 48.1049C51.8331 49.7684 50.9145 51.2208 49.7352 52.4621C48.5559 53.7035 47.178 54.6717 45.6015 55.3669C44.0249 56.0497 42.3243 56.391 40.4995 56.391ZM40.4995 51.438C41.865 51.438 43.0319 51.0718 44.0001 50.3394C44.9684 49.607 45.707 48.5829 46.216 47.267C46.7249 45.9512 46.9794 44.4119 46.9794 42.6491V42.1836C46.9794 40.4581 46.7187 38.9437 46.1973 37.6402C45.6884 36.3244 44.9498 35.3003 43.9815 34.5679C43.0132 33.8355 41.8402 33.4693 40.4622 33.4693C39.0098 33.4693 37.8181 33.8293 36.8871 34.5492C35.9685 35.2692 35.2858 36.2809 34.8389 37.5844C34.392 38.8878 34.1685 40.4209 34.1685 42.1836V42.6491C34.1685 44.4119 34.392 45.9574 34.8389 47.2856C35.2982 48.6015 35.9933 49.6256 36.9244 50.358C37.8678 51.078 39.0595 51.438 40.4995 51.438ZM55.2655 56V52.1828L58.1144 51.4939V33.432L55.2655 32.7244V28.8886H58.1144H67.9646C70.4101 28.8886 72.5763 29.4597 74.4632 30.6017C76.35 31.7313 77.8273 33.3017 78.8948 35.3127C79.9624 37.3113 80.4962 39.6202 80.4962 42.2395V42.6678C80.4962 45.287 79.9624 47.6022 78.8948 49.6132C77.8273 51.6118 76.35 53.1759 74.4632 54.3055C72.5763 55.4352 70.4101 56 67.9646 56H55.2655ZM64.6502 51.047H67.6295C69.0074 51.047 70.1619 50.6994 71.0929 50.0042C72.0239 49.3091 72.7253 48.3346 73.197 47.0808C73.6811 45.8146 73.9232 44.3436 73.9232 42.6678V42.2209C73.9232 40.545 73.6811 39.0802 73.197 37.8264C72.7253 36.5727 72.0239 35.5982 71.0929 34.903C70.1619 34.2079 69.0074 33.8603 67.6295 33.8603H64.6502V51.047Z" fill="white"/>
</svg>
